name analog
datacolumns 19
datarows 56
range 0.39 0.4175
endheader
time	ground_force_vx	ground_force_vy	ground_force_vz	ground_force_px	ground_force_py	ground_force_pz	l_ground_force_vx	l_ground_force_vy	l_ground_force_vz	l_ground_force_px	l_ground_force_py	l_ground_force_pz	ground_torque_x	ground_torque_y	ground_torque_z	l_ground_torque_x	l_ground_torque_y	l_ground_torque_z
0.39	-0.0	-0.0	-0.0	-2.620103597640991	61.07630920410156	-492.8166809082031	3.47183609008789	-64.94445037841797	-507.2849731445313	-0.0	-0.0	-0.0	-0.0	-0.0	-0.0	78125.265625	7343.7783203125	-8671.875
0.3905	-0.0	-0.0	-0.0	-3.213191509246826	61.098087310791016	-493.4790954589844	3.092811584472656	-64.7518081665039	-509.0630493164063	-0.0	-0.0	-0.0	-0.0	-0.0	-0.0	78409.8984375	7180.46875	-8749.0009765625
0.391	-0.0	-0.0	-0.0	-3.2006685733795166	61.3435173034668	-493.60833740234375	3.104877471923828	-64.72782135009766	-508.1576232910156	-0.0	-0.0	-0.0	-0.0	-0.0	-0.0	78420.25	7498.34228515625	-8727.4169921875
0.3915	-0.0	-0.0	-0.0	-3.557584047317505	61.51080322265625	-495.511474609375	3.0161666870117188	-64.96905517578125	-509.526123046875	-0.0	-0.0	-0.0	-0.0	-0.0	-0.0	78136.6328125	7331.736328125	-8982.576171875
0.392	-0.0	-0.0	-0.0	-3.6144473552703857	61.934844970703125	-494.8478393554688	2.944689512252808	-64.68048858642578	-509.1099548339844	-0.0	-0.0	-0.0	-0.0	-0.0	-0.0	78309.4140625	7606.2197265625	-8905.5791015625
0.3925	-0.0	-0.0	-0.0	-3.611405372619629	62.38054656982422	-496.21783447265625	2.803154706954956	-64.54570770263672	-508.9006958007813	-0.0	-0.0	-0.0	-0.0	-0.0	-0.0	78741.515625	7493.90380859375	-8935.34375
0.393	-0.0	-0.0	-0.0	-3.868070363998413	62.19853591918945	-496.1333312988281	2.495692491531372	-64.38650512695312	-510.9259338378906	-0.0	-0.0	-0.0	-0.0	-0.0	-0.0	78721.109375	7725.60400390625	-8870.2333984375
0.3935	-0.0	-0.0	-0.0	-3.899848222732544	62.76905059814453	-498.3789978027344	2.7852859497070312	-64.0566177368164	-510.0388488769531	-0.0	-0.0	-0.0	-0.0	-0.0	-0.0	78671.1953125	7756.9599609375	-8891.697265625
0.394	-0.0	-0.0	-0.0	-3.909967184066773	62.65867614746094	-501.45068359375	2.684678554534912	-64.09829711914062	-509.4122314453125	-0.0	-0.0	-0.0	-0.0	-0.0	-0.0	78813.5625	7723.88720703125	-8855.8310546875
0.3945	-0.0	-0.0	-0.0	-4.35543155670166	62.47528076171875	-499.5415954589844	2.672951459884644	-64.02164459228516	-510.5054321289063	-0.0	-0.0	-0.0	-0.0	-0.0	-0.0	78563.15625	7816.98583984375	-8931.5732421875
0.395	-0.0	-0.0	-0.0	-4.234772205352783	62.94698333740234	-498.8144226074219	2.8039803504943848	-63.86811828613281	-510.3684387207031	-0.0	-0.0	-0.0	-0.0	-0.0	-0.0	78758.0625	7854.669921875	-8950.8544921875
0.3955	-0.0	-0.0	-0.0	-4.470921516418457	63.59756088256836	-500.102783203125	3.0161666870117188	-63.691402435302734	-511.280517578125	-0.0	-0.0	-0.0	-0.0	-0.0	-0.0	78510.578125	7831.068359375	-8750.6630859375
0.396	-0.0	-0.0	-0.0	-4.854796886444092	62.95710372924805	-500.0617980957031	2.970264434814453	-63.59996032714844	-510.15570068359375	-0.0	-0.0	-0.0	-0.0	-0.0	-0.0	78774.9453125	7959.53515625	-8875.916015625
0.3965	-0.0	-0.0	-0.0	-4.560041904449463	63.90650177001953	-500.3883972167969	2.595463991165161	-63.62306213378906	-509.1529846191406	-0.0	-0.0	-0.0	-0.0	-0.0	-0.0	78718.140625	8096.12451171875	-8913.5263671875
0.397	-0.0	-0.0	-0.0	-4.323034763336182	63.61132049560547	-501.9497375488281	3.0161666870117188	-62.973365783691406	-508.060302734375	-0.0	-0.0	-0.0	-0.0	-0.0	-0.0	78607.140625	8293.8173828125	-8827.8662109375
0.3975	-0.0	-0.0	-0.0	-4.570121765136719	64.18154907226562	-501.6769104003906	3.3275513648986816	-62.44343566894531	-507.9710998535156	-0.0	-0.0	-0.0	-0.0	-0.0	-0.0	78471.1171875	8064.76806640625	-8830.6796875
0.398	-0.0	-0.0	-0.0	-4.797128677368164	64.2042236328125	-502.8881530761719	3.603421926498413	-62.55413436889648	-508.448486328125	-0.0	-0.0	-0.0	-0.0	-0.0	-0.0	78328.8671875	8138.2197265625	-8745.4248046875
0.3985	-0.0	-0.0	-0.0	-4.728157043457031	64.35215759277344	-502.92822265625	4.058315753936768	-62.52061462402344	-505.222412109375	-0.0	-0.0	-0.0	-0.0	-0.0	-0.0	78374.1875	8133.66796875	-8760.14453125
0.399	-0.0	-0.0	-0.0	-4.707047462463379	64.68968200683594	-503.0829162597656	4.1805572509765625	-61.93570709228516	-507.1856689453125	-0.0	-0.0	-0.0	-0.0	-0.0	-0.0	77840.140625	8453.2431640625	-8500.40234375
0.3995	-0.0	-0.0	-0.0	-4.628990650177002	64.98600769042969	-504.5364990234375	4.313503742218018	-62.15641021728516	-504.8296203613281	-0.0	-0.0	-0.0	-0.0	-0.0	-0.0	77487.6484375	8503.59375	-8500.33984375
0.4	-0.0	-0.0	-0.0	-4.629030704498291	65.42172241210938	-504.066162109375	4.524250030517578	-61.869136810302734	-503.7389221191406	-0.0	-0.0	-0.0	-0.0	-0.0	-0.0	77438.0703125	8645.814453125	-8548.3583984375
0.4005	-0.0	-0.0	-0.0	-4.2821044921875	65.79795837402344	-504.3426208496094	4.612960815429688	-61.68135833740234	-501.6444091796875	-0.0	-0.0	-0.0	-0.0	-0.0	-0.0	77153.4453125	8519.4013671875	-8447.99609375
0.401	-0.0	-0.0	-0.0	-3.844766616821289	65.80867004394531	-503.4795227050781	4.92275333404541	-61.74773025512695	-501.2958068847656	-0.0	-0.0	-0.0	-0.0	-0.0	-0.0	77215.515625	8630.4501953125	-8418.056640625
0.4015	-0.0	-0.0	-0.0	-4.212399005889893	66.03588104248047	-504.854248046875	4.989554405212402	-61.936859130859375	-500.4198913574219	-0.0	-0.0	-0.0	-0.0	-0.0	-0.0	76720.3359375	8998.234375	-8310.271484375
0.402	-0.0	-0.0	-0.0	-3.8360519409179688	66.0649642944336	-501.0390625	5.177631855010986	-61.79291534423828	-500.249267578125	-0.0	-0.0	-0.0	-0.0	-0.0	-0.0	76515.53125	9117.947265625	-8358.4453125
0.4025	-0.0	-0.0	-0.0	-3.845680952072144	66.1251449584961	-501.2385864257813	5.1909260749816895	-61.88138961791992	-498.9800109863281	-0.0	-0.0	-0.0	-0.0	-0.0	-0.0	76319.5	8979.1962890625	-8399.759765625
0.403	-0.0	-0.0	-0.0	-3.558831214904785	66.612060546875	-501.5914306640625	5.045801639556885	-61.53888702392578	-498.7690124511719	-0.0	-0.0	-0.0	-0.0	-0.0	-0.0	76502.7421875	9489.5625	-8462.7119140625
0.4035	-0.0	-0.0	-0.0	-3.549388885498047	66.38313293457031	-500.0886840820313	4.989083766937256	-61.41535568237305	-498.0158386230469	-0.0	-0.0	-0.0	-0.0	-0.0	-0.0	76070.65625	9186.3779296875	-8366.6376953125
0.404	-0.0	-0.0	-0.0	-3.0805373191833496	66.24282836914062	-499.4714660644531	5.510668754577637	-61.09361267089844	-496.4518737792969	-0.0	-0.0	-0.0	-0.0	-0.0	-0.0	75988.5234375	9259.091796875	-8303.3515625
0.4045	-0.0	-0.0	-0.0	-2.8409337997436523	66.59925079345703	-499.2471618652344	5.901420593261719	-61.88199234008789	-496.26904296875	-0.0	-0.0	-0.0	-0.0	-0.0	-0.0	76074.59375	9273.7978515625	-8343.5888671875
0.405	-0.0	-0.0	-0.0	-2.9108517169952397	66.01256561279297	-499.3594055175781	5.453268051147461	-61.84048461914063	-497.3761291503906	-0.0	-0.0	-0.0	-0.0	-0.0	-0.0	75739.75	9211.8828125	-8295.1044921875
0.4055	-0.0	-0.0	-0.0	-2.802776336669922	66.5564193725586	-497.9623718261719	5.9540605545043945	-61.57061004638672	-496.9249267578125	-0.0	-0.0	-0.0	-0.0	-0.0	-0.0	75592.4375	9451.6142578125	-8189.95751953125
0.406	-0.0	-0.0	-0.0	-3.3807601928710938	67.06298828125	-499.6764831542969	5.974717140197754	-61.72654342651367	-495.0561828613281	-0.0	-0.0	-0.0	-0.0	-0.0	-0.0	75638.234375	9267.314453125	-8247.6337890625
0.40650000000000003	-0.0	-0.0	-0.0	-2.5438404083251958	67.12437438964844	-498.0200805664063	5.817776679992676	-61.23773956298828	-494.0901489257813	-0.0	-0.0	-0.0	-0.0	-0.0	-0.0	75416.859375	9361.076171875	-8224.908203125
0.40700000000000003	-0.0	-0.0	-0.0	-3.1132185459136963	66.74266815185547	-498.4455871582031	5.906288623809815	-61.22739410400391	-492.8551635742188	-0.0	-0.0	-0.0	-0.0	-0.0	-0.0	75349.4609375	9595.8232421875	-8257.9541015625
0.40750000000000003	-0.0	-0.0	-0.0	-2.6944668292999268	66.9822769165039	-500.3122863769531	5.9232177734375	-61.97135162353516	-492.8537292480469	-0.0	-0.0	-0.0	-0.0	-0.0	-0.0	75230.609375	9702.09765625	-8307.224609375
0.40800000000000003	-0.0	-0.0	-0.0	-2.9439468383789062	67.15129852294922	-499.7138671875	6.090557098388672	-61.68900680541992	-491.6163330078125	-0.0	-0.0	-0.0	-0.0	-0.0	-0.0	74934.828125	9697.708984375	-8228.27734375
0.40850000000000003	-0.0	-0.0	-0.0	-2.587104797363281	67.1241683959961	-498.3013305664063	5.961543083190918	-61.61056137084961	-491.4553527832031	-0.0	-0.0	-0.0	-0.0	-0.0	-0.0	74907.765625	9652.3212890625	-8172.40234375
0.40900000000000003	-0.0	-0.0	-0.0	-2.4889819622039795	67.94416809082031	-496.32366943359375	5.421397686004639	-61.815185546875	-493.6939086914063	-0.0	-0.0	-0.0	-0.0	-0.0	-0.0	74760.09375	9817.2421875	-8159.93603515625
0.40950000000000003	-0.0	-0.0	-0.0	-2.6048483848571777	67.03492736816406	-497.1719665527344	5.558780670166016	-61.73686218261719	-489.9384460449219	-0.0	-0.0	-0.0	-0.0	-0.0	-0.0	74694.421875	9985.1806640625	-8238.69921875
0.41000000000000003	-0.0	-0.0	-0.0	-2.515491008758545	66.6255874633789	-495.26275634765625	5.233936309814453	-61.756629943847656	-489.8988037109375	-0.0	-0.0	-0.0	-0.0	-0.0	-0.0	74753.421875	10012.2666015625	-8357.3076171875
0.41050000000000003	-0.0	-0.0	-0.0	-2.587104797363281	66.23263549804688	-493.8840942382813	5.135348320007324	-62.05081558227539	-490.4802856445313	-0.0	-0.0	-0.0	-0.0	-0.0	-0.0	74616.390625	10304.30078125	-8420.1826171875
0.41100000000000003	-0.0	-0.0	-0.0	-2.077967643737793	66.3043212890625	-492.608642578125	5.036839962005615	-62.080352783203125	-490.2088623046875	-0.0	-0.0	-0.0	-0.0	-0.0	-0.0	74412.453125	10137.1435546875	-8433.484375
0.41150000000000003	-0.0	-0.0	-0.0	-2.4000484943389893	65.80412292480469	-493.4265747070313	4.790382385253906	-62.32594680786133	-490.7150268554688	-0.0	-0.0	-0.0	-0.0	-0.0	-0.0	74316.21875	10233.4423828125	-8460.1455078125
0.41200000000000003	-0.0	-0.0	-0.0	-2.391493320465088	65.49900817871094	-493.0391845703125	4.119594097137451	-62.67935180664063	-490.4049377441406	-0.0	-0.0	-0.0	-0.0	-0.0	-0.0	74167.2578125	10487.0810546875	-8543.2265625
0.41250000000000003	-0.0	-0.0	-0.0	-2.221718072891236	65.89673614501953	-491.1568908691406	4.109719276428223	-62.53175354003906	-490.2850036621094	-0.0	-0.0	-0.0	-0.0	-0.0	-0.0	74136.3046875	10505.470703125	-8552.9677734375
0.41300000000000003	-0.0	-0.0	-0.0	-2.6000735759735107	65.67217254638672	-490.634033203125	4.200509548187256	-62.550872802734375	-490.4446716308594	-0.0	-0.0	-0.0	-0.0	-0.0	-0.0	73998.1328125	10595.1552734375	-8440.6982421875
0.41350000000000003	-0.0	-0.0	-0.0	-3.0633480548858643	65.71437072753906	-490.9201049804688	3.991985321044922	-62.65815734863281	-488.6136779785156	-0.0	-0.0	-0.0	-0.0	-0.0	-0.0	74179.3984375	10822.119140625	-8615.6474609375
0.41400000000000003	-0.0	-0.0	-0.0	-3.016441345214844	65.87299346923828	-491.240234375	3.706875562667847	-63.1311149597168	-488.1139526367188	-0.0	-0.0	-0.0	-0.0	-0.0	-0.0	73955.3046875	10683.6123046875	-8559.8154296875
0.41450000000000004	-0.0	-0.0	-0.0	-2.174324750900269	65.9874496459961	-489.2200927734375	3.3389930725097656	-63.014644622802734	-488.463134765625	-0.0	-0.0	-0.0	-0.0	-0.0	-0.0	74081.125	10850.267578125	-8616.2021484375
0.41500000000000004	-0.0	-0.0	-0.0	-2.481358528137207	64.98432159423828	-489.9915161132813	3.193588256835937	-63.39625549316406	-488.2249450683594	-0.0	-0.0	-0.0	-0.0	-0.0	-0.0	74265.1015625	10933.7919921875	-8589.8828125
0.41550000000000004	-0.0	-0.0	-0.0	-2.595299243927002	64.84600067138672	-490.9813232421875	3.343031644821167	-63.545188903808594	-487.65472412109375	-0.0	-0.0	-0.0	-0.0	-0.0	-0.0	74029.8984375	10896.064453125	-8781.84375
0.41600000000000004	-0.0	-0.0	-0.0	-3.0489747524261475	64.46572875976562	-488.4801635742188	3.104877471923828	-63.396480560302734	-487.8013916015625	-0.0	-0.0	-0.0	-0.0	-0.0	-0.0	73823.75	11097.3525390625	-8722.7001953125
0.4165	-0.0	-0.0	-0.0	-2.2221574783325195	64.77351379394531	-488.9938049316406	2.988454818725586	-63.68913650512695	-487.9466247558594	-0.0	-0.0	-0.0	-0.0	-0.0	-0.0	73919.8515625	11305.5654296875	-8726.013671875
0.417	-0.0	-0.0	-0.0	-2.4737987518310547	63.90650177001953	-487.4201049804688	2.3310413360595703	-63.96315002441406	-488.0057373046875	-0.0	-0.0	-0.0	-0.0	-0.0	-0.0	73934.9921875	11253.41015625	-8830.9384765625
0.4175	-0.0	-0.0	-0.0	-2.286203622817993	64.2310791015625	-487.7731628417969	2.2451419830322266	-64.28002166748047	-487.0665283203125	-0.0	-0.0	-0.0	-0.0	-0.0	-0.0	73450.8359375	11579.48046875	-8729.85546875
